<svg width="20" height="20" viewBox="0 0 20 20" fill="none" xmlns="http://www.w3.org/2000/svg">
<path d="M10.001 1.66669C10.1029 1.66669 10.2048 1.69316 10.2948 1.74318L17.195 5.57453C17.384 5.67769 17.501 5.87583 17.501 6.08804V14.0453C17.501 14.2575 17.3839 14.4548 17.195 14.558L10.2948 18.3902C10.2078 18.4402 10.1059 18.4667 10.001 18.4667C9.89598 18.4667 9.79068 18.44 9.70068 18.3869L2.80127 14.4815C2.61534 14.3784 2.50106 14.1813 2.50098 13.9721V6.08804C2.50098 5.87583 2.61797 5.67769 2.80697 5.57453L9.70719 1.74318C9.79714 1.69316 9.89906 1.66669 10.001 1.66669ZM13.1447 12.4804C12.5087 13.2614 11.6027 13.7746 10.6007 13.9249V16.866L15.7163 14.025L13.1447 12.4804ZM4.28564 13.9631L9.4012 16.857V13.9306C8.3842 13.7862 7.46564 13.27 6.82064 12.4772L4.28564 13.9631ZM13.7599 8.5457C13.9429 9.00539 14.0358 9.49169 14.0358 9.99263C14.0358 10.5025 13.94 10.9953 13.751 11.464L16.3006 12.9931V7.10773L13.7599 8.5457ZM3.70133 12.9345L6.21761 11.4575C6.02872 10.9919 5.93604 10.4994 5.93604 9.99263C5.93607 9.48594 6.03175 8.99683 6.21761 8.53431L3.70133 7.10773V12.9345ZM9.55664 7.13051C8.80755 7.23906 8.13615 7.61957 7.66292 8.19903L7.38216 8.54245L7.22347 8.93795C7.08884 9.27289 7.01924 9.62504 7.01921 9.99263C7.01921 10.365 7.08726 10.719 7.22184 11.0506L7.38623 11.455L7.6613 11.7936C8.13234 12.3726 8.80375 12.7516 9.55339 12.858L9.99202 12.9199L10.4404 12.8531C11.1788 12.7423 11.8413 12.3659 12.3049 11.7968L12.5889 11.4477L12.7459 11.0587C12.883 10.7188 12.9526 10.3636 12.9526 9.99263C12.9526 9.62769 12.885 9.27721 12.7533 8.94609L12.5913 8.53919L12.3195 8.19903C11.8563 7.61967 11.1917 7.23867 10.4453 7.13051L10.001 7.06541L9.55664 7.13051ZM10.6007 6.05793C11.6176 6.20528 12.5299 6.72712 13.1659 7.52276L15.6919 6.09374L10.6007 3.26742V6.05793ZM4.31331 6.09374L6.82389 7.51462C7.46889 6.72474 8.3842 6.2053 9.4012 6.05793V3.26742L4.31331 6.09374Z" fill="#7F7989"/>
<path d="M17.418 6.08807C17.418 5.90647 17.3174 5.73641 17.1551 5.64781L17.1543 5.64699L10.2541 1.81643C10.196 1.78419 10.132 1.76303 10.0669 1.75458L10.001 1.74969C9.91344 1.74969 9.82545 1.77255 9.74788 1.81561L2.84766 5.64699L2.84684 5.64781C2.68458 5.73641 2.58398 5.90647 2.58398 6.08807V13.9722C2.58411 14.1513 2.68275 14.3201 2.84196 14.4084L9.74137 18.3146L9.743 18.3155L9.80241 18.3447C9.86435 18.3703 9.93247 18.383 10.001 18.383L10.0685 18.3789C10.135 18.3705 10.198 18.3497 10.2533 18.3179L10.2541 18.3171L17.1543 14.4849C17.3166 14.3962 17.4179 14.2268 17.418 14.0454V6.08807ZM13.1878 12.4089L15.7594 13.9535L15.8831 14.0275L10.6414 16.9385L10.5177 17.0077V13.8534L10.5885 13.8428C11.5702 13.6955 12.4577 13.1923 13.0804 12.4276L13.126 12.3714L13.1878 12.4089ZM6.88493 12.4243C7.51649 13.2007 8.41627 13.7069 9.4126 13.8485L9.48421 13.8583V16.9995L4.24495 14.0357L4.11882 13.9641L4.24333 13.8916L6.77832 12.4056L6.84017 12.369L6.88493 12.4243ZM13.1618 12.5879C12.5306 13.3356 11.6539 13.8325 10.6838 13.995V16.7237L15.5487 14.0218L13.1618 12.5879ZM4.45166 13.9616L9.3182 16.7147V14.0007C8.33257 13.8434 7.44219 13.3438 6.80192 12.5838L4.45166 13.9616ZM16.3836 13.1405L13.6468 11.499L13.6737 11.4331C13.8587 10.9745 13.9528 10.4919 13.9528 9.9927C13.9528 9.50226 13.8616 9.02642 13.6826 8.57668L13.6558 8.50914L13.7192 8.47333L16.2599 7.03534L16.3836 6.96454V13.1405ZM5.85303 9.9927C5.85307 9.5002 5.942 9.02394 6.11426 8.5718L3.78434 7.25018V12.7889L6.11426 11.4209C5.93916 10.9651 5.85303 10.4853 5.85303 9.9927ZM12.8696 9.9927C12.8696 9.6383 12.8038 9.29826 12.6759 8.97707L12.5181 8.58156L12.2544 8.25116C11.8045 7.68845 11.1588 7.3179 10.4331 7.21275L10.001 7.14927L9.56885 7.21275C8.84031 7.31832 8.18719 7.68874 7.72721 8.25197L7.45459 8.58482L7.30078 8.96893C7.17007 9.29412 7.10225 9.63587 7.10221 9.9927C7.10222 10.3546 7.16882 10.6977 7.29915 11.0189L7.45866 11.4128L7.72559 11.7407C8.18301 12.303 8.83538 12.6713 9.56397 12.7751L9.99365 12.8353L10.4282 12.771C11.1463 12.6632 11.7903 12.2968 12.2406 11.744L12.5156 11.4046L12.6686 11.0279C12.8017 10.6978 12.8696 10.3529 12.8696 9.9927ZM10.6414 3.19419L15.7326 6.02053L15.862 6.09296L13.1447 7.63023L13.1007 7.57489C12.478 6.79587 11.5846 6.28449 10.5885 6.14016L10.5177 6.13039V3.12583L10.6414 3.19419ZM9.48421 6.13039L9.41341 6.14016C8.41704 6.28453 7.51999 6.79384 6.88818 7.56757L6.84424 7.62209L6.7832 7.5871L4.14323 6.09296L4.27262 6.02053L9.36051 3.19419L9.48421 3.12583V6.13039ZM10.6838 5.98716C11.6691 6.1473 12.5528 6.6535 13.1846 7.4162L15.5218 6.09377L10.6838 3.40904V5.98716ZM4.48258 6.09377L6.80436 7.40806C7.44443 6.65053 8.33232 6.14725 9.3182 5.98716V3.40904L4.48258 6.09377ZM6.01904 9.9927C6.01905 10.4891 6.1103 10.9707 6.29492 11.4258L6.32178 11.4925L6.25993 11.5292L3.74365 13.0062L3.61833 13.0803V6.96454L3.74284 7.03534L6.25911 8.46193L6.32178 8.49774L6.29492 8.56529C6.11302 9.01796 6.01908 9.49668 6.01904 9.9927ZM13.0356 9.9927C13.0356 10.3743 12.9643 10.74 12.8232 11.0897L12.6662 11.4787L12.6613 11.4909L12.6532 11.5007L12.3691 11.8498C11.8924 12.435 11.2111 12.8216 10.4526 12.9354L10.0042 13.0021L9.99202 13.0038L9.98063 13.0021L9.54199 12.9403C8.77194 12.8309 8.0814 12.4417 7.59701 11.8465L7.32194 11.5072L7.3138 11.4982L7.30892 11.486L7.14453 11.0816C7.00586 10.7398 6.93621 10.3753 6.9362 9.9927C6.93624 9.6144 7.00765 9.25173 7.14616 8.90708L7.30485 8.51158L7.30973 8.49937L7.31787 8.4896L7.59863 8.14618C8.08503 7.5507 8.775 7.15993 9.54443 7.04836L9.98877 6.98326L10.001 6.98081L10.0132 6.98326L10.4575 7.04836C11.2246 7.15959 11.9082 7.55106 12.3846 8.14699L12.6564 8.48716L12.6646 8.49693L12.6686 8.50832L12.8306 8.91522C12.9663 9.25621 13.0356 9.61728 13.0356 9.9927ZM14.1188 9.9927C14.1188 10.489 14.0283 10.969 13.8527 11.4274L16.2176 12.8459V7.25018L13.8625 8.58238C14.0321 9.03208 14.1188 9.50562 14.1188 9.9927ZM17.584 14.0454C17.584 14.2883 17.4503 14.5137 17.2349 14.6314L17.234 14.6306L10.3354 18.4619L10.3363 18.4627C10.2361 18.5203 10.1196 18.5498 10.001 18.5498C9.88222 18.5498 9.76213 18.5198 9.65837 18.4587L2.76058 14.5541C2.5482 14.4361 2.41809 14.2112 2.41797 13.9722V6.08807C2.41797 5.8455 2.55092 5.61913 2.76628 5.50132L9.6665 1.66994C9.76875 1.61308 9.88481 1.58368 10.001 1.58368C10.1169 1.58368 10.2325 1.61331 10.3346 1.66994L17.2357 5.50132C17.4514 5.61904 17.584 5.84529 17.584 6.08807V14.0454Z" fill="#7F7989"/>
</svg>
