<svg width="10" height="15" viewBox="0 0 10 15" fill="none" xmlns="http://www.w3.org/2000/svg">
<path d="M3.20638 1.30505C3.03996 1.1422 2.80908 1.04187 2.55169 1.04187C2.29496 1.04187 2.06585 1.1422 1.90153 1.30505H1.89733C1.7314 1.46681 1.62848 1.69251 1.62848 1.94183C1.62848 2.19257 1.7314 2.41686 1.89733 2.57703L1.90153 2.58144C2.06585 2.74288 2.29496 2.84179 2.55169 2.84179C2.80908 2.84179 3.03996 2.74288 3.20638 2.58144L3.20832 2.57703C3.3749 2.41686 3.47653 2.19257 3.47653 1.94183C3.47653 1.69251 3.3749 1.46681 3.20832 1.30505H3.20638ZM2.55169 13.6248C2.80908 13.6248 3.03996 13.5226 3.20638 13.3627L3.20832 13.358C3.3749 13.1984 3.47653 12.9727 3.47653 12.7247C3.47653 12.4739 3.3749 12.2493 3.20832 12.0868H3.20638C3.03996 11.9224 2.80908 11.823 2.55169 11.823C2.29496 11.823 2.06585 11.9224 1.90153 12.0868H1.89733C1.7314 12.2493 1.62848 12.4739 1.62848 12.7247C1.62848 12.9727 1.7314 13.1984 1.89733 13.358L1.90153 13.3627C2.06585 13.5226 2.29496 13.6248 2.55169 13.6248ZM7.58189 10.898C7.81051 10.8394 8.01748 10.6964 8.14399 10.48L8.16096 10.4483C8.27341 10.2434 8.29393 10.0065 8.23383 9.79626C8.17324 9.57182 8.02491 9.37274 7.8034 9.24878L7.79031 9.24028C7.57445 9.12467 7.32887 9.09947 7.10299 9.15948C6.8734 9.21539 6.66707 9.36439 6.54137 9.57891C6.41405 9.79216 6.38755 10.0372 6.44846 10.2628C6.51132 10.4847 6.65851 10.6852 6.87873 10.8106H6.88002C7.10073 10.9342 7.35019 10.9564 7.58189 10.898ZM3.49866 6.41108C3.2563 6.17546 2.92185 6.02773 2.55169 6.02773C2.18202 6.02773 1.84854 6.17546 1.60666 6.41108C1.3656 6.64639 1.21695 6.971 1.21695 7.33184C1.21695 7.69267 1.3656 8.0187 1.60666 8.25668C1.84854 8.49089 2.18202 8.63721 2.55169 8.63721C2.92185 8.63721 3.2563 8.49089 3.49866 8.25668C3.74037 8.0187 3.88902 7.69267 3.88902 7.33184C3.88902 6.971 3.74037 6.64639 3.49866 6.41108ZM2.96612 4.87718C3.50351 4.96349 3.98596 5.21439 4.35483 5.57649H4.35757C4.41622 5.6335 4.47326 5.69634 4.52641 5.75903L5.44818 5.23928C5.32425 4.87419 5.31844 4.49256 5.41813 4.13456C5.54948 3.65529 5.86826 3.22625 6.34619 2.9574L6.3617 2.94779C6.83446 2.68713 7.37168 2.63279 7.85656 2.76084C8.34773 2.8892 8.79076 3.20137 9.06656 3.66647V3.66789C9.34107 4.13047 9.39665 4.66125 9.26578 5.13911C9.13507 5.61822 8.81516 6.05025 8.33772 6.31753L8.21185 6.38998H8.19909C7.75751 6.59489 7.27199 6.62702 6.82606 6.51252C6.45994 6.41801 6.12419 6.21862 5.86115 5.9359L4.94068 6.45424C5.04651 6.72703 5.105 7.02109 5.105 7.33184C5.105 7.64101 5.04651 7.93932 4.94068 8.21353L5.86115 8.73045C6.12419 8.44332 6.45994 8.24849 6.82606 8.15368C7.31739 8.02279 7.86189 8.07839 8.33772 8.34882L8.36825 8.36268V8.3641C8.82792 8.63579 9.13652 9.05506 9.26578 9.52866C9.39665 10.0037 9.34107 10.5348 9.06656 10.9983L9.04992 11.0306L9.04798 11.0279C8.77234 11.4747 8.33772 11.7775 7.85801 11.9055C7.36603 12.032 6.82137 11.978 6.34619 11.7115V11.7078C5.86826 11.4385 5.54948 11.0085 5.41813 10.5302C5.31844 10.1738 5.32425 9.79216 5.44818 9.42723L4.52641 8.90874C4.47326 8.97142 4.41622 9.03143 4.35757 9.08845L4.35483 9.09128C3.98596 9.45212 3.50351 9.70286 2.96612 9.78633V10.8246C3.34905 10.9025 3.6919 11.0892 3.96043 11.3511L3.96189 11.3538C4.32187 11.7031 4.54483 12.1898 4.54483 12.7247C4.54483 13.258 4.32187 13.7418 3.96189 14.0929L3.96043 14.0984C3.59787 14.4493 3.10055 14.6667 2.55169 14.6667C2.00574 14.6667 1.50714 14.4493 1.14538 14.0984H1.14392V14.0929C0.78362 13.7418 0.560167 13.258 0.560167 12.7247C0.560167 12.1898 0.78362 11.7031 1.14392 11.3538V11.3511H1.14538C1.41375 11.0892 1.75725 10.9025 2.13872 10.8246V9.78633C1.60149 9.70286 1.11985 9.45212 0.751629 9.09128L0.747751 9.08845C0.28792 8.63862 0 8.0187 0 7.33184C0 6.64639 0.28792 6.02647 0.747751 5.57649H0.751629C1.11985 5.21439 1.60149 4.96349 2.13872 4.87718V3.84334C1.75725 3.7627 1.41375 3.57606 1.14538 3.31556H1.14392V3.31272C0.78362 2.96023 0.560167 2.47686 0.560167 1.94183C0.560167 1.40964 0.78362 0.922012 1.14392 0.570942L1.14538 0.569524C1.50714 0.217194 2.00574 0 2.55169 0C3.10055 0 3.59787 0.217194 3.96043 0.569524V0.570942H3.96189C4.32187 0.922012 4.54483 1.40964 4.54483 1.94183C4.54483 2.47686 4.32187 2.96023 3.96189 3.31272L3.96043 3.31556C3.6919 3.57606 3.34905 3.7627 2.96612 3.84334V4.87718ZM8.14399 4.18764L8.13608 4.1763C8.00908 3.96745 7.80615 3.82822 7.58189 3.76822C7.35019 3.70821 7.10073 3.73341 6.87873 3.85752H6.88002C6.65851 3.98005 6.51035 4.1804 6.44846 4.40499C6.38755 4.62786 6.41405 4.87419 6.54137 5.08886L6.54573 5.09438C6.67321 5.30621 6.87631 5.44828 7.10299 5.50545C7.3308 5.5683 7.58463 5.54168 7.8034 5.41757L7.81519 5.41205C8.03057 5.28668 8.17404 5.08886 8.23383 4.87151C8.2949 4.64723 8.2705 4.40216 8.14399 4.18764Z" fill="#4B4760"/>
</svg>
