<svg width="24" height="24" viewBox="0 0 24 24" fill="none" xmlns="http://www.w3.org/2000/svg">
<g id="legend">
<g id="ic">
<path fill-rule="evenodd" clip-rule="evenodd" d="M6.29297 16.5C6.48686 16.5 6.65939 16.5688 6.7959 16.707C6.93226 16.8452 6.99995 17.0196 7 17.2158V20.2842C6.99995 20.4804 6.93226 20.6548 6.7959 20.793C6.65939 20.9312 6.48685 21 6.29297 21H3.2627C3.06877 21 2.8963 20.9312 2.75977 20.793C2.62336 20.6548 2.55572 20.4804 2.55566 20.2842V17.2158C2.55572 17.0196 2.62336 16.8452 2.75977 16.707C2.89629 16.5688 3.06876 16.5 3.2627 16.5H6.29297ZM3.96973 19.5684H5.58594V17.9316H3.96973V19.5684Z" fill="#7F7989"/>
<path d="M20.8887 17.625C21.2035 17.625 21.4677 17.7326 21.6807 17.9482C21.8936 18.1639 22 18.4312 22 18.75C22 19.0688 21.8936 19.3361 21.6807 19.5518C21.4677 19.7674 21.2035 19.875 20.8887 19.875H9.77734C9.46282 19.8749 9.19916 19.7671 8.98633 19.5518C8.77337 19.3361 8.66699 19.0688 8.66699 18.75C8.66699 18.4312 8.77337 18.1639 8.98633 17.9482C9.19916 17.7329 9.46282 17.6251 9.77734 17.625H20.8887Z" fill="#7F7989"/>
<path fill-rule="evenodd" clip-rule="evenodd" d="M4.71191 9.52637C4.82045 9.52646 4.92405 9.55045 5.02148 9.59961C5.12536 9.6522 5.2094 9.73616 5.27344 9.84375L7.32422 13.2295C7.38893 13.3387 7.42285 13.4573 7.42285 13.5811C7.42279 13.7007 7.39632 13.8128 7.34082 13.9141C7.28541 14.015 7.20686 14.0973 7.1084 14.1582C7.0063 14.2213 6.88903 14.2499 6.76172 14.25H2.66113C2.53384 14.25 2.41655 14.2212 2.31445 14.1582C2.21594 14.0972 2.13745 14.0151 2.08203 13.9141C2.02644 13.8127 2.00006 13.7008 2 13.5811C2 13.4574 2.03303 13.3396 2.09766 13.2305L2.09863 13.2295L4.14844 9.84375C4.2125 9.73605 4.29644 9.65223 4.40039 9.59961C4.49818 9.55017 4.60295 9.52637 4.71191 9.52637ZM3.83789 12.9111H5.58496L4.71191 11.4814L3.83789 12.9111Z" fill="#7F7989"/>
<path d="M20.8887 10.875C21.2035 10.875 21.4677 10.9826 21.6807 11.1982C21.8936 11.4139 22 11.6812 22 12C22 12.3187 21.8936 12.5861 21.6807 12.8018C21.4677 13.0174 21.2035 13.125 20.8887 13.125H9.77734C9.46282 13.1249 9.19916 13.0171 8.98633 12.8018C8.77337 12.5861 8.66699 12.3187 8.66699 12C8.66699 11.6812 8.77337 11.4139 8.98633 11.1982C9.19916 10.9829 9.46282 10.8751 9.77734 10.875H20.8887Z" fill="#7F7989"/>
<path fill-rule="evenodd" clip-rule="evenodd" d="M4.55566 3C5.23104 3.00008 5.81197 3.24261 6.28613 3.72266C6.76038 4.20283 7 4.79159 7 5.47559C6.99991 6.1594 6.76026 6.74746 6.28613 7.22754C5.81196 7.70764 5.23107 7.95012 4.55566 7.9502C3.88012 7.9502 3.29847 7.70771 2.82422 7.22754C2.3502 6.74749 2.11044 6.15932 2.11035 5.47559C2.11035 4.79164 2.35003 4.20281 2.82422 3.72266C3.29847 3.24248 3.88012 3 4.55566 3ZM6.12988 7.06934C6.02647 7.17404 5.91675 7.26508 5.80273 7.34473C5.85703 7.3068 5.91101 7.26724 5.96289 7.22363L6.12988 7.06934ZM4.27734 6.69531C4.3659 6.71433 4.45869 6.72559 4.55566 6.72559L4.42871 6.71973C4.37694 6.71503 4.32651 6.70591 4.27734 6.69531ZM5.20703 6.54297C5.21884 6.53551 5.23156 6.52941 5.24316 6.52148L5.25488 6.5127C5.23936 6.52358 5.22293 6.53292 5.20703 6.54297ZM4.55566 4.4502C4.26733 4.4502 4.03184 4.54872 3.83594 4.74707C3.64012 4.94539 3.54297 5.18371 3.54297 5.47559C3.54305 5.76735 3.64012 6.00584 3.83594 6.2041C4.03179 6.40228 4.26745 6.5 4.55566 6.5C4.84365 6.49993 5.07867 6.4021 5.27441 6.2041C5.47023 6.00584 5.5673 5.76735 5.56738 5.47559C5.56738 5.18365 5.47031 4.94542 5.27441 4.74707C5.0786 4.54882 4.84383 4.45027 4.55566 4.4502ZM2.36816 5.89844C2.36953 5.90631 2.3716 5.91404 2.37305 5.92188C2.35995 5.85099 2.34939 5.77878 2.34277 5.70508L2.36816 5.89844Z" fill="#7F7989"/>
<path d="M20.8887 4.125C21.2035 4.125 21.4677 4.23265 21.6807 4.44824C21.8936 4.66387 22 4.93125 22 5.25C22 5.56875 21.8936 5.83613 21.6807 6.05176C21.4677 6.26735 21.2035 6.375 20.8887 6.375H9.77734C9.46282 6.3749 9.19916 6.26715 8.98633 6.05176C8.77337 5.83613 8.66699 5.56875 8.66699 5.25C8.66699 4.93125 8.77337 4.66387 8.98633 4.44824C9.19916 4.23285 9.46282 4.1251 9.77734 4.125H20.8887Z" fill="#7F7989"/>
</g>
</g>
</svg>
