<svg width="20" height="10" viewBox="0 0 20 10" fill="none" xmlns="http://www.w3.org/2000/svg">
<path d="M18.3333 10C20.1619 9.48018 20.4167 0.416667 18.3333 0H1.4051C-0.636913 0.842015 -0.249346 9.27183 1.26671 10H18.3333Z" fill="#F3F5F9"/>
<path fill-rule="evenodd" clip-rule="evenodd" d="M1.9072 0C1.88884 0 1.8718 0.0053364 1.85701 0.0141502C1.53005 -0.0434601 1.23835 0.165102 1.0371 0.413544C0.0833629 1.59092 0 3.52495 0 5.00199C2.42411e-06 5.6494 0.0427124 6.29087 0.125975 6.88995C0.209213 7.48884 0.331496 8.03508 0.486518 8.49709C0.641199 8.95808 0.82724 9.33138 1.0371 9.59044C1.24655 9.84898 1.48571 9.99997 1.74275 10C1.78487 10 1.82644 9.99556 1.86756 9.98764C10.0908 10 9.57756 9.99621 18.241 9.99621C18.9397 9.99562 19.3284 8.99892 19.4972 8.4957C19.6522 8.03369 19.7745 7.48744 19.8577 6.88855C20.1013 5.13581 20.0633 3.19274 19.4972 1.5055C19.3125 0.955049 18.9364 0.000572227 18.241 0H1.9072ZM1.74275 0.207868C1.91714 0.207868 2.10535 0.309983 2.2945 0.543487C2.48328 0.776522 2.65951 1.12458 2.80993 1.57286C3.36757 3.23479 3.40249 5.12862 3.16168 6.86125C3.0798 7.45038 2.96 7.98365 2.80993 8.43092C2.65952 8.87919 2.48327 9.22726 2.2945 9.4603C2.10535 9.6938 1.91714 9.79592 1.74275 9.79592C1.56839 9.79589 1.38032 9.69377 1.1912 9.4603C1.00243 9.22726 0.826186 8.8792 0.675773 8.43092C0.309764 7.34009 0.200002 6.15013 0.199998 5.00199C0.199998 3.85379 0.309737 2.66375 0.675773 1.57286C0.826191 1.12459 1.00243 0.77652 1.1912 0.543487C1.38032 0.31003 1.56839 0.207901 1.74275 0.207868ZM18.241 0.206473C18.4153 0.206506 18.6034 0.308652 18.7925 0.542092C18.9813 0.775119 19.1575 1.12321 19.3079 1.57147C19.458 2.01875 19.5778 2.55219 19.6597 3.14134C19.8302 4.36825 19.8302 5.63295 19.6597 6.85985C19.5778 7.44897 19.458 7.98226 19.3079 8.42953C19.1578 8.87688 18.982 9.22447 18.7937 9.45751C18.6697 9.59165 18.6083 9.64767 18.5416 9.68491C18.4732 9.72304 18.3957 9.74403 18.2277 9.79213H2.2531C2.32069 9.73524 2.38602 9.6677 2.4486 9.59044C2.65846 9.33138 2.8445 8.95808 2.99918 8.49709C3.15421 8.03508 3.27649 7.48884 3.35973 6.88995C3.60333 5.1372 3.56529 3.19414 2.99918 1.5069C2.79631 0.902275 2.54226 0.450132 2.24411 0.204082C13.2483 0.204082 7.23707 0.206474 18.241 0.206473Z" fill="#768CBC"/>
<path d="M1.9072 0C1.88884 0 1.8718 0.0053364 1.85701 0.0141502C1.53005 -0.0434601 1.23835 0.165102 1.0371 0.413544C0.0833629 1.59092 0 3.52495 0 5.00199C2.36327e-06 5.63315 0.0391048 6.26491 0.125975 6.88995C0.201596 7.43403 0.311884 7.97663 0.486518 8.49709C0.615261 8.88078 0.781788 9.27527 1.0371 9.59044C1.21334 9.80799 1.45554 9.99996 1.74275 10C1.78487 10 1.82644 9.99556 1.86756 9.98764C10.0908 10 9.57756 9.99621 18.241 9.99621C18.9397 9.99562 19.3284 8.99892 19.4972 8.4957C19.6718 7.97524 19.7821 7.43264 19.8577 6.88855C20.1013 5.13581 20.0633 3.19274 19.4972 1.5055C19.3125 0.955049 18.9364 0.000572227 18.241 0H1.9072ZM1.74275 0.207868C1.91714 0.207868 2.10535 0.309983 2.2945 0.543487C2.53605 0.841669 2.68819 1.21009 2.80993 1.57286C3.36757 3.23479 3.40249 5.12862 3.16168 6.86125C3.0878 7.39282 2.98053 7.92246 2.80993 8.43092C2.68841 8.79307 2.53548 9.16278 2.2945 9.4603C2.10535 9.6938 1.91714 9.79592 1.74275 9.79592C1.51656 9.79588 1.3267 9.62757 1.1912 9.4603C0.950547 9.16321 0.797223 8.79288 0.675773 8.43092C0.309764 7.34009 0.200002 6.15013 0.199998 5.00199C0.199998 3.85379 0.309737 2.66375 0.675773 1.57286C0.797507 1.21009 0.949651 0.841669 1.1912 0.543487C1.32799 0.374623 1.51629 0.207911 1.74275 0.207868ZM18.241 0.206473C18.4153 0.206506 18.6034 0.308652 18.7925 0.542092C19.0341 0.840273 19.1862 1.2087 19.3079 1.57147C19.4785 2.07989 19.5858 2.60988 19.6597 3.14134C19.8302 4.36825 19.8302 5.63295 19.6597 6.85985C19.5858 7.39142 19.4786 7.92106 19.3079 8.42953C19.1578 8.87688 18.982 9.22447 18.7937 9.45751C18.6697 9.59165 18.6083 9.64767 18.5416 9.68491C18.4732 9.72304 18.3957 9.74403 18.2277 9.79213H2.2531C2.32069 9.73524 2.38602 9.6677 2.4486 9.59044C2.70391 9.27527 2.87044 8.88078 2.99918 8.49709C3.17382 7.97663 3.28411 7.43403 3.35973 6.88995C3.60333 5.1372 3.56529 3.19414 2.99918 1.5069C2.79631 0.902275 2.54226 0.450132 2.24411 0.204082C13.2483 0.204082 7.23707 0.206474 18.241 0.206473Z" fill="#768CBC"/>
</svg>
