<svg width="20" height="20" viewBox="0 0 20 20" fill="none" xmlns="http://www.w3.org/2000/svg">
<rect width="20" height="20" rx="10" fill="#5871F4" fill-opacity="0.1"/>
<path d="M8.2 9.55C8.3275 9.55 8.43438 9.50688 8.52062 9.42063C8.60687 9.33438 8.65 9.2275 8.65 9.1C8.65 8.9725 8.60687 8.86562 8.52062 8.77937C8.43438 8.69312 8.3275 8.65 8.2 8.65C8.0725 8.65 7.96562 8.69312 7.87937 8.77937C7.79312 8.86562 7.75 8.9725 7.75 9.1C7.75 9.2275 7.79312 9.33438 7.87937 9.42063C7.96562 9.50688 8.0725 9.55 8.2 9.55ZM10 9.55C10.1275 9.55 10.2344 9.50688 10.3206 9.42063C10.4069 9.33438 10.45 9.2275 10.45 9.1C10.45 8.9725 10.4069 8.86562 10.3206 8.77937C10.2344 8.69312 10.1275 8.65 10 8.65C9.8725 8.65 9.76562 8.69312 9.67938 8.77937C9.59312 8.86562 9.55 8.9725 9.55 9.1C9.55 9.2275 9.59312 9.33438 9.67938 9.42063C9.76562 9.50688 9.8725 9.55 10 9.55ZM11.8 9.55C11.9275 9.55 12.0344 9.50688 12.1206 9.42063C12.2069 9.33438 12.25 9.2275 12.25 9.1C12.25 8.9725 12.2069 8.86562 12.1206 8.77937C12.0344 8.69312 11.9275 8.65 11.8 8.65C11.6725 8.65 11.5656 8.69312 11.4794 8.77937C11.3931 8.86562 11.35 8.9725 11.35 9.1C11.35 9.2275 11.3931 9.33438 11.4794 9.42063C11.5656 9.50688 11.6725 9.55 11.8 9.55ZM5.5 14.5V6.4C5.5 6.1525 5.58813 5.94063 5.76438 5.76438C5.94063 5.58813 6.1525 5.5 6.4 5.5H13.6C13.8475 5.5 14.0594 5.58813 14.2356 5.76438C14.4119 5.94063 14.5 6.1525 14.5 6.4V11.8C14.5 12.0475 14.4119 12.2594 14.2356 12.4356C14.0594 12.6119 13.8475 12.7 13.6 12.7H7.3L5.5 14.5ZM6.9175 11.8H13.6V6.4H6.4V12.3062L6.9175 11.8Z" fill="#5871F4"/>
</svg>
