<svg width="24" height="24" viewBox="0 0 24 24" fill="none" xmlns="http://www.w3.org/2000/svg">
<path d="M2.5 20C2.22386 20 2 19.7761 2 19.5V16.375C2 15.8438 2.13258 15.3555 2.39773 14.9102C2.66288 14.4648 3.01515 14.125 3.45455 13.8906C4.39394 13.4062 5.34848 13.043 6.31818 12.8008C7.28788 12.5586 8.27273 12.4375 9.27273 12.4375C10.2727 12.4375 11.2576 12.5586 12.2273 12.8008C13.197 13.043 14.1515 13.4062 15.0909 13.8906C15.5303 14.125 15.8826 14.4648 16.1477 14.9102C16.4129 15.3555 16.5455 15.8438 16.5455 16.375V20H2.5ZM18.3636 20V16.1875C18.3636 15.5 18.178 14.8398 17.8068 14.207C17.4356 13.5742 16.9091 13.0313 16.2273 12.5781C17 12.6719 17.7273 12.832 18.4091 13.0586C19.0909 13.2852 19.7273 13.5625 20.3182 13.8906C20.8636 14.2031 21.2803 14.5508 21.5682 14.9336C21.8561 15.3164 22 15.7344 22 16.1875V19.5C22 19.7761 21.7761 20 21.5 20H18.3636ZM9.27273 11.5C8.27273 11.5 7.41667 11.1328 6.70455 10.3984C5.99242 9.66406 5.63636 8.78125 5.63636 7.75C5.63636 6.71875 5.99242 5.83594 6.70455 5.10156C7.41667 4.36719 8.27273 4 9.27273 4C10.2727 4 11.1288 4.36719 11.8409 5.10156C12.553 5.83594 12.9091 6.71875 12.9091 7.75C12.9091 8.78125 12.553 9.66406 11.8409 10.3984C11.1288 11.1328 10.2727 11.5 9.27273 11.5ZM18.3636 7.75C18.3636 8.78125 18.0076 9.66406 17.2955 10.3984C16.5833 11.1328 15.7273 11.5 14.7273 11.5C14.5606 11.5 14.3485 11.4805 14.0909 11.4414C13.8333 11.4023 13.6212 11.3594 13.4545 11.3125C13.8636 10.8125 14.178 10.2578 14.3977 9.64844C14.6174 9.03906 14.7273 8.40625 14.7273 7.75C14.7273 7.09375 14.6174 6.46094 14.3977 5.85156C14.178 5.24219 13.8636 4.6875 13.4545 4.1875C13.6667 4.10938 13.8788 4.05859 14.0909 4.03516C14.303 4.01172 14.5152 4 14.7273 4C15.7273 4 16.5833 4.36719 17.2955 5.10156C18.0076 5.83594 18.3636 6.71875 18.3636 7.75Z" fill="#7F7989"/>
</svg>
