<svg width="24" height="24" viewBox="0 0 24 24" fill="none" xmlns="http://www.w3.org/2000/svg">
<path d="M2 17.5V16.1875C2 15.5903 2.30556 14.1042 2.91667 13.7292C3.52778 13.3542 4.33333 13.1667 5.33333 13.1667C5.51389 13.1667 5.6875 13.1701 5.85417 13.1771C6.02083 13.184 6.18056 13.2014 6.33333 13.2292C6.13889 13.5208 5.99306 13.8264 5.89583 14.1458C5.79861 14.4653 5.75 15.7986 5.75 16.1458V17.5H2ZM7 17.5V16.1458C7 15.7014 7.12153 14.2951 7.36458 13.9271C7.60764 13.559 7.95139 13.2361 8.39583 12.9583C8.84028 12.6806 9.37153 12.4722 9.98958 12.3333C10.6076 12.1944 11.2778 12.125 12 12.125C12.7361 12.125 13.4132 12.1944 14.0312 12.3333C14.6493 12.4722 15.1806 12.6806 15.625 12.9583C16.0694 13.2361 16.4097 13.559 16.6458 13.9271C16.8819 14.2951 17 15.7014 17 16.1458V17.5H7ZM18.25 17.5V16.1458C18.25 15.7847 18.2049 14.4444 18.1146 14.125C18.0243 13.8056 17.8889 13.5069 17.7083 13.2292C17.8611 13.2014 18.0174 13.184 18.1771 13.1771C18.3368 13.1701 18.5 13.1667 18.6667 13.1667C19.6667 13.1667 20.4722 13.3507 21.0833 13.7188C21.6944 14.0868 22 15.5764 22 16.1875V17.5H18.25ZM8.77083 15.8333H15.25C15.1111 15.5556 14.7257 14.3125 14.0938 14.1042C13.4618 13.8958 12.7639 13.7917 12 13.7917C11.2361 13.7917 10.5382 13.8958 9.90625 14.1042C9.27431 14.3125 8.89583 15.5556 8.77083 15.8333ZM5.33333 12.3333C4.875 12.3333 4.48264 12.1701 4.15625 11.8438C3.82986 11.5174 3.66667 11.125 3.66667 10.6667C3.66667 10.1944 3.82986 9.79861 4.15625 9.47917C4.48264 9.15972 4.875 9 5.33333 9C5.80556 9 6.20139 9.15972 6.52083 9.47917C6.84028 9.79861 7 10.1944 7 10.6667C7 11.125 6.84028 11.5174 6.52083 11.8438C6.20139 12.1701 5.80556 12.3333 5.33333 12.3333ZM18.6667 12.3333C18.2083 12.3333 17.816 12.1701 17.4896 11.8438C17.1632 11.5174 17 11.125 17 10.6667C17 10.1944 17.1632 9.79861 17.4896 9.47917C17.816 9.15972 18.2083 9 18.6667 9C19.1389 9 19.5347 9.15972 19.8542 9.47917C20.1736 9.79861 20.3333 10.1944 20.3333 10.6667C20.3333 11.125 20.1736 11.5174 19.8542 11.8438C19.5347 12.1701 19.1389 12.3333 18.6667 12.3333ZM12 11.5C11.3056 11.5 10.7153 11.2569 10.2292 10.7708C9.74305 10.2847 9.5 9.69444 9.5 9C9.5 8.29167 9.74305 7.69792 10.2292 7.21875C10.7153 6.73958 11.3056 6.5 12 6.5C12.7083 6.5 13.3021 6.73958 13.7812 7.21875C14.2604 7.69792 14.5 8.29167 14.5 9C14.5 9.69444 14.2604 10.2847 13.7812 10.7708C13.3021 11.2569 12.7083 11.5 12 11.5ZM12 9.83333C12.2361 9.83333 12.434 9.75347 12.5938 9.59375C12.7535 9.43403 12.8333 9.23611 12.8333 9C12.8333 8.76389 12.7535 8.56597 12.5938 8.40625C12.434 8.24653 12.2361 8.16667 12 8.16667C11.7639 8.16667 11.566 8.24653 11.4062 8.40625C11.2465 8.56597 11.1667 8.76389 11.1667 9C11.1667 9.23611 11.2465 9.43403 11.4062 9.59375C11.566 9.75347 11.7639 9.83333 12 9.83333Z" fill="#4B4760"/>
</svg>
