<svg xmlns="http://www.w3.org/2000/svg" width="20" height="20" viewBox="0 0 20 20" fill="none">
    <path d="M3.23438 15.9392V14.2726H4.90104V8.43925C4.90104 7.28647 5.24826 6.26217 5.94271 5.36633C6.63715 4.4705 7.53993 3.88369 8.65104 3.60592V3.02258C8.65104 2.67536 8.77257 2.38022 9.01563 2.13717C9.25868 1.89411 9.55382 1.77258 9.90104 1.77258C10.2483 1.77258 10.5434 1.89411 10.7865 2.13717C11.0295 2.38022 11.151 2.67536 11.151 3.02258V3.60592C12.2622 3.88369 13.1649 4.4705 13.8594 5.36633C14.5538 6.26217 14.901 7.28647 14.901 8.43925V14.2726H16.5677V15.9392H3.23438ZM9.90104 18.4393C9.44271 18.4393 9.05035 18.2761 8.72396 17.9497C8.39757 17.6233 8.23438 17.2309 8.23438 16.7726H11.5677C11.5677 17.2309 11.4045 17.6233 11.0781 17.9497C10.7517 18.2761 10.3594 18.4393 9.90104 18.4393ZM6.56771 14.2726H13.2344V8.43925C13.2344 7.52258 12.908 6.73786 12.2552 6.08508C11.6024 5.43231 10.8177 5.10592 9.90104 5.10592C8.98438 5.10592 8.19965 5.43231 7.54688 6.08508C6.8941 6.73786 6.56771 7.52258 6.56771 8.43925V14.2726Z" fill="currentColor"/>
</svg>