<svg xmlns="http://www.w3.org/2000/svg" width="20" height="20" viewBox="0 0 20 20" fill="none">
    <path fill-rule="evenodd" clip-rule="evenodd" d="M9.306 6.88839C8.17554 6.58306 7.34375 5.55033 7.34375 4.32334C7.34375 2.85606 8.53321 1.6666 10.0005 1.6666C11.4678 1.6666 12.6572 2.85606 12.6572 4.32334C12.6572 5.55037 11.8254 6.58311 10.6949 6.88841V9.89365L13.0297 9.13502C12.9194 7.92681 13.6527 6.7598 14.8552 6.36909C16.2507 5.91567 17.7495 6.67936 18.2029 8.07482C18.6563 9.47028 17.8926 10.9691 16.4972 11.4225C15.3664 11.7899 14.1677 11.3581 13.5124 10.4385L11.2052 11.1882L12.6886 13.23C13.799 12.7658 15.1226 13.105 15.8607 14.121C16.7232 15.3081 16.46 16.9695 15.273 17.832C14.0859 18.6944 12.4245 18.4313 11.5621 17.2442C10.858 16.2752 10.9041 14.99 11.5905 14.0814L10.0155 11.9136L8.5478 13.9337C9.34711 14.8463 9.43971 16.2214 8.69656 17.2443C7.83411 18.4313 6.17267 18.6945 4.98562 17.832C3.79856 16.9696 3.53542 15.3081 4.39786 14.1211C5.09679 13.1591 6.32046 12.8039 7.39114 13.1628L8.94869 11.019L6.60614 10.2579C5.98521 11.3001 4.70597 11.8132 3.50347 11.4225C2.10801 10.9691 1.34433 9.47026 1.79774 8.0748C2.25115 6.67933 3.74996 5.91565 5.14543 6.36906C6.27627 6.7365 6.99222 7.79044 6.98179 8.91956L9.306 9.67475V6.88839ZM11.2684 4.32334C11.2684 5.02356 10.7007 5.5912 10.0005 5.5912C9.30027 5.5912 8.73262 5.02356 8.73262 4.32334C8.73262 3.62311 9.30026 3.05547 10.0005 3.05547C10.7007 3.05547 11.2684 3.62311 11.2684 4.32334ZM5.53026 9.28757C5.74664 8.62162 5.38219 7.90634 4.71624 7.68996C4.05029 7.47358 3.33502 7.83803 3.11864 8.50398C2.90225 9.16993 3.2667 9.88521 3.93266 10.1016C4.59861 10.318 5.31388 9.95352 5.53026 9.28757ZM7.29244 14.6569C6.72595 14.2454 5.93306 14.3709 5.52148 14.9374C5.1099 15.5039 5.23548 16.2968 5.80197 16.7084C6.36847 17.12 7.16135 16.9944 7.57294 16.4279C7.98452 15.8614 7.85893 15.0685 7.29244 14.6569ZM12.9662 14.6569C12.3997 15.0685 12.2741 15.8614 12.6857 16.4278C13.0973 16.9943 13.8901 17.1199 14.4566 16.7083C15.0231 16.2968 15.1487 15.5039 14.7371 14.9374C14.3255 14.3709 13.5327 14.2453 12.9662 14.6569ZM14.4704 9.28759C14.6868 9.95354 15.402 10.318 16.068 10.1016C16.7339 9.88523 17.0984 9.16995 16.882 8.504C16.6656 7.83805 15.9504 7.4736 15.2844 7.68998C14.6185 7.90636 14.254 8.62164 14.4704 9.28759Z" fill="currentColor"/>
</svg>