<svg xmlns="http://www.w3.org/2000/svg" width="20" height="20" viewBox="0 0 20 20" fill="none">
    <path d="M10.0003 3.33335C10.2364 3.33335 10.4345 3.41308 10.5945 3.57252C10.7539 3.73252 10.8337 3.93058 10.8337 4.16669C10.8337 4.4028 10.7539 4.60085 10.5945 4.76085C10.4345 4.9203 10.2364 5.00002 10.0003 5.00002C9.76421 5.00002 9.56644 4.9203 9.40699 4.76085C9.24699 4.60085 9.16699 4.4028 9.16699 4.16669C9.16699 3.93058 9.24699 3.73252 9.40699 3.57252C9.56644 3.41308 9.76421 3.33335 10.0003 3.33335ZM16.667 10C16.667 10.2361 16.587 10.4339 16.427 10.5934C16.2675 10.7534 16.0698 10.8334 15.8337 10.8334C15.5975 10.8334 15.3998 10.7534 15.2403 10.5934C15.0803 10.4339 15.0003 10.2361 15.0003 10C15.0003 9.76391 15.0803 9.56585 15.2403 9.40585C15.3998 9.24641 15.5975 9.16669 15.8337 9.16669C16.0698 9.16669 16.2675 9.24641 16.427 9.40585C16.587 9.56585 16.667 9.76391 16.667 10ZM10.0003 15C10.2364 15 10.4345 15.08 10.5945 15.24C10.7539 15.3995 10.8337 15.5972 10.8337 15.8334C10.8337 16.0695 10.7539 16.2672 10.5945 16.4267C10.4345 16.5867 10.2364 16.6667 10.0003 16.6667C9.76421 16.6667 9.56644 16.5867 9.40699 16.4267C9.24699 16.2672 9.16699 16.0695 9.16699 15.8334C9.16699 15.5972 9.24699 15.3995 9.40699 15.24C9.56644 15.08 9.76421 15 10.0003 15ZM5.00033 10C5.00033 10.2361 4.9206 10.4339 4.76116 10.5934C4.60116 10.7534 4.4031 10.8334 4.16699 10.8334C3.93088 10.8334 3.73283 10.7534 3.57283 10.5934C3.41338 10.4339 3.33366 10.2361 3.33366 10C3.33366 9.76391 3.41338 9.56585 3.57283 9.40585C3.73283 9.24641 3.93088 9.16669 4.16699 9.16669C4.4031 9.16669 4.60116 9.24641 4.76116 9.40585C4.9206 9.56585 5.00033 9.76391 5.00033 10ZM10.0003 18.3334C8.84755 18.3334 7.76421 18.1145 6.75033 17.6767C5.73644 17.2395 4.85449 16.6459 4.10449 15.8959C3.35449 15.1459 2.76088 14.2639 2.32366 13.25C1.88588 12.2361 1.66699 11.1528 1.66699 10C1.66699 8.84724 1.88588 7.76391 2.32366 6.75002C2.76088 5.73613 3.35449 4.85419 4.10449 4.10419C4.85449 3.35419 5.73644 2.7603 6.75033 2.32252C7.76421 1.8853 8.84755 1.66669 10.0003 1.66669C11.1531 1.66669 12.2364 1.8853 13.2503 2.32252C14.2642 2.7603 15.1462 3.35419 15.8962 4.10419C16.6462 4.85419 17.2398 5.73613 17.677 6.75002C18.1148 7.76391 18.3337 8.84724 18.3337 10C18.3337 11.1528 18.1148 12.2361 17.677 13.25C17.2398 14.2639 16.6462 15.1459 15.8962 15.8959C15.1462 16.6459 14.2642 17.2395 13.2503 17.6767C12.2364 18.1145 11.1531 18.3334 10.0003 18.3334ZM10.0003 16.6667C11.8614 16.6667 13.4378 16.0209 14.7295 14.7292C16.0212 13.4375 16.667 11.8611 16.667 10C16.667 8.13891 16.0212 6.56252 14.7295 5.27085C13.4378 3.97919 11.8614 3.33335 10.0003 3.33335C8.13921 3.33335 6.56283 3.97919 5.27116 5.27085C3.97949 6.56252 3.33366 8.13891 3.33366 10C3.33366 11.8611 3.97949 13.4375 5.27116 14.7292C6.56283 16.0209 8.13921 16.6667 10.0003 16.6667Z" fill="currentColor"/>
    <path d="M7.02118 9.68752L8.83368 11.5L12.9587 7.37502C13.1115 7.22224 13.3059 7.14585 13.542 7.14585C13.7781 7.14585 13.9726 7.22224 14.1253 7.37502C14.2781 7.5278 14.3581 7.71863 14.3653 7.94752C14.372 8.17697 14.299 8.36808 14.1462 8.52085L9.41701 13.25C9.26423 13.4028 9.06979 13.4792 8.83368 13.4792C8.59757 13.4792 8.40312 13.4028 8.25035 13.25L5.87535 10.875C5.72257 10.7222 5.64618 10.5278 5.64618 10.2917C5.64618 10.0556 5.72257 9.86113 5.87535 9.70835C6.02812 9.55558 6.21923 9.47585 6.44868 9.46919C6.67757 9.46197 6.8684 9.53474 7.02118 9.68752Z" fill="currentColor"/>
</svg>