<svg xmlns="http://www.w3.org/2000/svg" width="20" height="20" viewBox="0 0 20 20" fill="none">
    <path d="M8.5 2.5C8.086 2.5 7.75 2.836 7.75 3.25V4H2.5V5.5H7.75V6.25C7.75 6.664 8.086 7 8.5 7H9.25C9.664 7 10 6.664 10 6.25V3.25C10 2.836 9.664 2.5 9.25 2.5H8.5ZM11.5 4V5.5H17.5V4H11.5ZM12.25 7.75C11.836 7.75 11.5 8.086 11.5 8.5V9.25H2.5V10.75H11.5V11.5C11.5 11.914 11.836 12.25 12.25 12.25H13C13.414 12.25 13.75 11.914 13.75 11.5V8.5C13.75 8.086 13.414 7.75 13 7.75H12.25ZM15.25 9.25V10.75H17.5V9.25H15.25ZM4.75 13C4.336 13 4 13.336 4 13.75V14.5H2.5V16H4V16.75C4 17.164 4.336 17.5 4.75 17.5H5.5C5.914 17.5 6.25 17.164 6.25 16.75V13.75C6.25 13.336 5.914 13 5.5 13H4.75ZM7.75 14.5V16H17.5V14.5H7.75Z" fill="currentColor"/>
</svg>