<svg xmlns="http://www.w3.org/2000/svg" width="20" height="20" viewBox="0 0 20 20" fill="none">
    <path d="M14.167 17.5C13.7087 17.5 13.3164 17.3369 12.9903 17.0108C12.6637 16.6842 12.5003 16.2917 12.5003 15.8333V15H10.8337C10.3753 15 9.9831 14.8369 9.65699 14.5108C9.33033 14.1842 9.16699 13.7917 9.16699 13.3333V6.66667H7.50033V7.5C7.50033 7.95833 7.33699 8.35056 7.01033 8.67667C6.68421 9.00333 6.29199 9.16667 5.83366 9.16667H3.33366C2.87533 9.16667 2.4831 9.00333 2.15699 8.67667C1.83033 8.35056 1.66699 7.95833 1.66699 7.5V4.16667C1.66699 3.70833 1.83033 3.31583 2.15699 2.98917C2.4831 2.66306 2.87533 2.5 3.33366 2.5H5.83366C6.29199 2.5 6.68421 2.66306 7.01033 2.98917C7.33699 3.31583 7.50033 3.70833 7.50033 4.16667V5H12.5003V4.16667C12.5003 3.70833 12.6637 3.31583 12.9903 2.98917C13.3164 2.66306 13.7087 2.5 14.167 2.5H16.667C17.1253 2.5 17.5178 2.66306 17.8445 2.98917C18.1706 3.31583 18.3337 3.70833 18.3337 4.16667V7.5C18.3337 7.95833 18.1706 8.35056 17.8445 8.67667C17.5178 9.00333 17.1253 9.16667 16.667 9.16667H14.167C13.7087 9.16667 13.3164 9.00333 12.9903 8.67667C12.6637 8.35056 12.5003 7.95833 12.5003 7.5V6.66667H10.8337V13.3333H12.5003V12.5C12.5003 12.0417 12.6637 11.6492 12.9903 11.3225C13.3164 10.9964 13.7087 10.8333 14.167 10.8333H16.667C17.1253 10.8333 17.5178 10.9964 17.8445 11.3225C18.1706 11.6492 18.3337 12.0417 18.3337 12.5V15.8333C18.3337 16.2917 18.1706 16.6842 17.8445 17.0108C17.5178 17.3369 17.1253 17.5 16.667 17.5H14.167ZM14.167 7.5H16.667V4.16667H14.167V7.5ZM14.167 15.8333H16.667V12.5H14.167V15.8333ZM3.33366 7.5H5.83366V4.16667H3.33366V7.5Z" fill="currentColor"/>
</svg>