<svg xmlns="http://www.w3.org/2000/svg" width="20" height="20" viewBox="0 0 20 20" fill="none">
    <path d="M12.5003 16.6666C12.2642 16.6666 12.0664 16.5866 11.907 16.4266C11.747 16.2672 11.667 16.0694 11.667 15.8333C11.667 15.5972 11.747 15.3994 11.907 15.24C12.0664 15.08 12.2642 15 12.5003 15H14.167C14.4031 15 14.6009 14.92 14.7603 14.76C14.9203 14.6005 15.0003 14.4028 15.0003 14.1666V12.5C15.0003 11.9722 15.1531 11.493 15.4587 11.0625C15.7642 10.6319 16.167 10.3264 16.667 10.1458V9.85415C16.167 9.67359 15.7642 9.36804 15.4587 8.93748C15.1531 8.50692 15.0003 8.02776 15.0003 7.49998V5.83331C15.0003 5.5972 14.9203 5.39915 14.7603 5.23915C14.6009 5.0797 14.4031 4.99998 14.167 4.99998H12.5003C12.2642 4.99998 12.0664 4.92026 11.907 4.76081C11.747 4.60081 11.667 4.40276 11.667 4.16665C11.667 3.93054 11.747 3.73248 11.907 3.57248C12.0664 3.41304 12.2642 3.33331 12.5003 3.33331H14.167C14.8614 3.33331 15.4517 3.57637 15.9378 4.06248C16.4239 4.54859 16.667 5.13887 16.667 5.83331V7.49998C16.667 7.73609 16.747 7.93387 16.907 8.09331C17.0664 8.25331 17.2642 8.33331 17.5003 8.33331C17.7364 8.33331 17.9342 8.41303 18.0937 8.57248C18.2537 8.73248 18.3337 8.93054 18.3337 9.16665V10.8333C18.3337 11.0694 18.2537 11.2672 18.0937 11.4266C17.9342 11.5866 17.7364 11.6666 17.5003 11.6666C17.2642 11.6666 17.0664 11.7464 16.907 11.9058C16.747 12.0658 16.667 12.2639 16.667 12.5V14.1666C16.667 14.8611 16.4239 15.4514 15.9378 15.9375C15.4517 16.4236 14.8614 16.6666 14.167 16.6666H12.5003ZM5.83366 16.6666C5.13921 16.6666 4.54894 16.4236 4.06283 15.9375C3.57671 15.4514 3.33366 14.8611 3.33366 14.1666V12.5C3.33366 12.2639 3.25394 12.0658 3.09449 11.9058C2.93449 11.7464 2.73644 11.6666 2.50033 11.6666C2.26421 11.6666 2.06644 11.5866 1.90699 11.4266C1.74699 11.2672 1.66699 11.0694 1.66699 10.8333V9.16665C1.66699 8.93054 1.74699 8.73248 1.90699 8.57248C2.06644 8.41303 2.26421 8.33331 2.50033 8.33331C2.73644 8.33331 2.93449 8.25331 3.09449 8.09331C3.25394 7.93387 3.33366 7.73609 3.33366 7.49998V5.83331C3.33366 5.13887 3.57671 4.54859 4.06283 4.06248C4.54894 3.57637 5.13921 3.33331 5.83366 3.33331H7.50033C7.73644 3.33331 7.93449 3.41304 8.09449 3.57248C8.25394 3.73248 8.33366 3.93054 8.33366 4.16665C8.33366 4.40276 8.25394 4.60081 8.09449 4.76081C7.93449 4.92026 7.73644 4.99998 7.50033 4.99998H5.83366C5.59755 4.99998 5.39949 5.0797 5.23949 5.23915C5.08005 5.39915 5.00033 5.5972 5.00033 5.83331V7.49998C5.00033 8.02776 4.84755 8.50692 4.54199 8.93748C4.23644 9.36804 3.83366 9.67359 3.33366 9.85415V10.1458C3.83366 10.3264 4.23644 10.6319 4.54199 11.0625C4.84755 11.493 5.00033 11.9722 5.00033 12.5V14.1666C5.00033 14.4028 5.08005 14.6005 5.23949 14.76C5.39949 14.92 5.59755 15 5.83366 15H7.50033C7.73644 15 7.93449 15.08 8.09449 15.24C8.25394 15.3994 8.33366 15.5972 8.33366 15.8333C8.33366 16.0694 8.25394 16.2672 8.09449 16.4266C7.93449 16.5866 7.73644 16.6666 7.50033 16.6666H5.83366Z" fill="currentColor"/>
    <path d="M6.4318 10.8332C6.19569 10.8332 5.99764 10.7532 5.83764 10.5932C5.67819 10.4338 5.59847 10.236 5.59847 9.9999C5.59847 9.76379 5.67819 9.56574 5.83764 9.40574C5.99764 9.24629 6.19569 9.16657 6.4318 9.16657C6.66791 9.16657 6.86597 9.24629 7.02597 9.40574C7.18541 9.56574 7.26514 9.76379 7.26514 9.9999C7.26514 10.236 7.18541 10.4338 7.02597 10.5932C6.86597 10.7532 6.66791 10.8332 6.4318 10.8332ZM9.76514 10.8332C9.52903 10.8332 9.33125 10.7532 9.1718 10.5932C9.0118 10.4338 8.9318 10.236 8.9318 9.9999C8.9318 9.76379 9.0118 9.56574 9.1718 9.40574C9.33125 9.24629 9.52903 9.16657 9.76514 9.16657C10.0012 9.16657 10.1993 9.24629 10.3593 9.40574C10.5187 9.56574 10.5985 9.76379 10.5985 9.9999C10.5985 10.236 10.5187 10.4338 10.3593 10.5932C10.1993 10.7532 10.0012 10.8332 9.76514 10.8332ZM13.0985 10.8332C12.8624 10.8332 12.6646 10.7532 12.5051 10.5932C12.3451 10.4338 12.2651 10.236 12.2651 9.9999C12.2651 9.76379 12.3451 9.56574 12.5051 9.40574C12.6646 9.24629 12.8624 9.16657 13.0985 9.16657C13.3346 9.16657 13.5324 9.24629 13.6918 9.40574C13.8518 9.56574 13.9318 9.76379 13.9318 9.9999C13.9318 10.236 13.8518 10.4338 13.6918 10.5932C13.5324 10.7532 13.3346 10.8332 13.0985 10.8332Z" fill="currentColor"/>
</svg>