<svg xmlns="http://www.w3.org/2000/svg" width="20" height="20" viewBox="0 0 20 20" fill="none">
    <path fill-rule="evenodd" clip-rule="evenodd" d="M4.16667 17.5C3.70833 17.5 3.31583 17.3369 2.98917 17.0108C2.66306 16.6842 2.5 16.2917 2.5 15.8333V4.16667C2.5 3.70833 2.66306 3.31583 2.98917 2.98917C3.31583 2.66306 3.70833 2.5 4.16667 2.5H15.8333C16.2917 2.5 16.6842 2.66306 17.0108 2.98917C17.3369 3.31583 17.5 3.70833 17.5 4.16667V15.8333C17.5 16.2917 17.3369 16.6842 17.0108 17.0108C16.6842 17.3369 16.2917 17.5 15.8333 17.5H4.16667ZM4.16667 15.8333H15.8333V10.8333H13.6364C13.4639 10.8333 13.3051 10.7844 13.1697 10.6814C13.0403 10.5832 12.9455 10.4523 12.8826 10.2967L12.8802 10.2909L11.8185 7.41488L9.22386 14.4678C9.13912 14.68 9.00456 14.8566 8.82263 14.9942C8.63454 15.1365 8.41859 15.2083 8.18182 15.2083C7.94504 15.2083 7.7291 15.1365 7.541 14.9942C7.35908 14.8566 7.22458 14.68 7.13985 14.4678L7.13789 14.4629L5.79436 10.8333H4.16667V15.8333ZM4.16667 9.16659H6.36364C6.53607 9.16659 6.69492 9.21541 6.83026 9.3184C6.95971 9.4166 7.05453 9.54752 7.1174 9.70313L7.11977 9.70898L8.18147 12.585L10.7761 5.53202C10.8609 5.31981 10.9954 5.14321 11.1774 5.00563C11.3655 4.86338 11.5814 4.79159 11.8182 4.79159C12.055 4.79159 12.2709 4.86338 12.459 5.00563C12.6409 5.14321 12.7754 5.31984 12.8601 5.53204L12.8621 5.53695L14.2056 9.16659H15.8333V4.16667H4.16667V9.16659Z" fill="currentColor"/>
</svg>