<svg width="24" height="24" viewBox="0 0 24 24" fill="none" xmlns="http://www.w3.org/2000/svg">
<path d="M2 19.5455V17C2 16.4848 2.13258 16.0114 2.39773 15.5795C2.66288 15.1477 3.01515 14.8182 3.45455 14.5909C4.39394 14.1212 5.34848 13.7689 6.31818 13.5341C7.28788 13.2992 8.27273 13.1818 9.27273 13.1818C10.2727 13.1818 11.2576 13.2992 12.2273 13.5341C13.197 13.7689 14.1515 14.1212 15.0909 14.5909C15.5303 14.8182 15.8826 15.1477 16.1477 15.5795C16.4129 16.0114 16.5455 16.4848 16.5455 17V19.5455H2ZM18.3636 19.5455V16.8182C18.3636 16.1515 18.178 15.5114 17.8068 14.8977C17.4356 14.2841 16.9091 13.7576 16.2273 13.3182C17 13.4091 17.7273 13.5644 18.4091 13.7841C19.0909 14.0038 19.7273 14.2727 20.3182 14.5909C20.8636 14.8939 21.2803 15.2311 21.5682 15.6023C21.8561 15.9735 22 16.3788 22 16.8182V19.5455H18.3636ZM9.27273 12.2727C8.27273 12.2727 7.41667 11.9167 6.70455 11.2045C5.99242 10.4924 5.63636 9.63636 5.63636 8.63636C5.63636 7.63636 5.99242 6.7803 6.70455 6.06818C7.41667 5.35606 8.27273 5 9.27273 5C10.2727 5 11.1288 5.35606 11.8409 6.06818C12.553 6.7803 12.9091 7.63636 12.9091 8.63636C12.9091 9.63636 12.553 10.4924 11.8409 11.2045C11.1288 11.9167 10.2727 12.2727 9.27273 12.2727ZM18.3636 8.63636C18.3636 9.63636 18.0076 10.4924 17.2955 11.2045C16.5833 11.9167 15.7273 12.2727 14.7273 12.2727C14.5606 12.2727 14.3485 12.2538 14.0909 12.2159C13.8333 12.178 13.6212 12.1364 13.4545 12.0909C13.8636 11.6061 14.178 11.0682 14.3977 10.4773C14.6174 9.88636 14.7273 9.27273 14.7273 8.63636C14.7273 8 14.6174 7.38636 14.3977 6.79545C14.178 6.20455 13.8636 5.66667 13.4545 5.18182C13.6667 5.10606 13.8788 5.05682 14.0909 5.03409C14.303 5.01136 14.5152 5 14.7273 5C15.7273 5 16.5833 5.35606 17.2955 6.06818C18.0076 6.7803 18.3636 7.63636 18.3636 8.63636ZM3.81818 17.7273H14.7273V17C14.7273 16.8333 14.6856 16.6818 14.6023 16.5455C14.5189 16.4091 14.4091 16.303 14.2727 16.2273C13.4545 15.8182 12.6288 15.5114 11.7955 15.3068C10.9621 15.1023 10.1212 15 9.27273 15C8.42424 15 7.58333 15.1023 6.75 15.3068C5.91667 15.5114 5.09091 15.8182 4.27273 16.2273C4.13636 16.303 4.02652 16.4091 3.94318 16.5455C3.85985 16.6818 3.81818 16.8333 3.81818 17V17.7273ZM9.27273 10.4545C9.77273 10.4545 10.2008 10.2765 10.5568 9.92045C10.9129 9.56439 11.0909 9.13636 11.0909 8.63636C11.0909 8.13636 10.9129 7.70833 10.5568 7.35227C10.2008 6.99621 9.77273 6.81818 9.27273 6.81818C8.77273 6.81818 8.3447 6.99621 7.98864 7.35227C7.63258 7.70833 7.45455 8.13636 7.45455 8.63636C7.45455 9.13636 7.63258 9.56439 7.98864 9.92045C8.3447 10.2765 8.77273 10.4545 9.27273 10.4545Z" fill="#7F7989"/>
</svg>
