<svg width="24" height="24" viewBox="0 0 24 24" fill="none" xmlns="http://www.w3.org/2000/svg">
<path d="M12.9713 20L11.6795 16.9648C12.9237 16.5052 14.0887 15.8871 15.1666 15.1659L12.9713 20ZM7.03534 12.321L4 11.0292L8.83435 8.83408C8.11316 9.91184 7.495 11.0768 7.03534 12.321ZM17.7977 5.58494C18.0196 5.58494 18.2177 5.58494 18.3842 5.62457C18.5189 6.7261 18.3683 8.99257 15.7689 11.5919C14.4216 12.947 12.8128 13.9851 11.0058 14.6746L9.30193 13.0104C10.031 11.1798 11.0692 9.57107 12.4086 8.2318C14.5959 6.04458 16.5455 5.58494 17.7977 5.58494ZM17.7977 4C16.2285 4 13.851 4.54681 11.2832 7.11441C9.54761 8.84993 8.50942 10.7598 7.83578 12.4319C7.61387 13.0263 7.76445 13.6761 8.20034 14.1199L9.88839 15.7999C10.1896 16.101 10.5937 16.2833 11.0138 16.2833C11.196 16.2833 11.3862 16.2358 11.5685 16.1644C13.2645 15.5146 15.1507 14.4527 16.8863 12.7172C21.372 8.2318 19.6918 4.30906 19.6918 4.30906C19.6918 4.30906 18.9706 4 17.7977 4ZM14.0887 9.91184C13.4706 9.29371 13.4706 8.28727 14.0887 7.66914C14.7069 7.05102 15.7134 7.05102 16.3316 7.66914C16.9418 8.28727 16.9497 9.29371 16.3316 9.91184C15.7134 10.53 14.7069 10.53 14.0887 9.91184ZM7.51085 19.8494L10.3956 16.9648C10.1261 16.8935 9.86462 16.7746 9.62686 16.6082L6.3934 19.8494H7.51085ZM4.15058 19.8494H5.26803L9.04833 16.0773L7.92296 14.9599L4.15058 18.732V19.8494ZM4.15058 17.6067L7.39197 14.3735C7.22554 14.1357 7.10666 13.8821 7.03534 13.6048L4.15058 16.4894V17.6067Z" fill="#7F7989"/>
</svg>
