<svg width="24" height="24" viewBox="0 0 24 24" fill="none" xmlns="http://www.w3.org/2000/svg">
<rect y="6.10352e-05" width="24" height="24" rx="12" fill="#F98B0A" fill-opacity="0.12"/>
<path fill-rule="evenodd" clip-rule="evenodd" d="M7.33333 18.0001C6.96667 18.0001 6.65267 17.8696 6.39133 17.6087C6.13044 17.3474 6 17.0334 6 16.6667V7.33339C6 6.96673 6.13044 6.65273 6.39133 6.39139C6.65267 6.13051 6.96667 6.00006 7.33333 6.00006H16.6667C17.0333 6.00006 17.3473 6.13051 17.6087 6.39139C17.8696 6.65273 18 6.96673 18 7.33339V16.6667C18 17.0334 17.8696 17.3474 17.6087 17.6087C17.3473 17.8696 17.0333 18.0001 16.6667 18.0001H7.33333ZM7.33333 16.6667H16.6667V12.6667H14.9091C14.7711 12.6667 14.6441 12.6276 14.5358 12.5452C14.4322 12.4667 14.3564 12.3619 14.3061 12.2374L14.3042 12.2328L13.4548 9.93197L11.3791 15.5743C11.3113 15.7441 11.2036 15.8854 11.0581 15.9954C10.9076 16.1092 10.7349 16.1667 10.5455 16.1667C10.356 16.1667 10.1833 16.1092 10.0328 15.9954C9.88727 15.8854 9.77967 15.7441 9.71188 15.5743L9.71032 15.5704L8.63549 12.6667H7.33333V16.6667ZM7.33333 11.3333H9.09091C9.22885 11.3333 9.35594 11.3724 9.46421 11.4548C9.56777 11.5333 9.64363 11.6381 9.69392 11.7626L9.69582 11.7672L10.5452 14.068L12.6209 8.42567C12.6887 8.25591 12.7964 8.11463 12.9419 8.00457C13.0924 7.89077 13.2651 7.83333 13.4545 7.83333C13.644 7.83333 13.8167 7.89077 13.9672 8.00457C14.1127 8.11463 14.2203 8.25593 14.2881 8.4257L14.2897 8.42962L15.3645 11.3333H16.6667V7.33339H7.33333V11.3333Z" fill="#F98B0A"/>
</svg>
