<svg width="24" height="24" viewBox="0 0 24 24" fill="none" xmlns="http://www.w3.org/2000/svg">
<path d="M19.528 11.664L12.328 4.464C12.028 4.16646 11.6225 3.99966 11.2 4H5.6C5.17565 4 4.76869 4.16857 4.46863 4.46863C4.16857 4.76869 4 5.17565 4 5.6V11.2C3.99983 11.4111 4.04145 11.6202 4.12246 11.8152C4.20347 12.0101 4.32227 12.1872 4.472 12.336L11.672 19.536C11.972 19.8335 12.3775 20.0003 12.8 20C13.2237 19.9982 13.6293 19.8285 13.928 19.528L19.528 13.928C19.8285 13.6293 19.9982 13.2237 20 12.8C20.0002 12.5889 19.9585 12.3798 19.8775 12.1848C19.7965 11.9899 19.6777 11.8128 19.528 11.664ZM12.8 18.4L5.6 11.2V5.6H11.2L18.4 12.8M7.6 6.4C7.83734 6.4 8.06935 6.47038 8.26669 6.60224C8.46402 6.73409 8.61783 6.92151 8.70866 7.14078C8.79948 7.36005 8.82325 7.60133 8.77694 7.83411C8.73064 8.06689 8.61635 8.28071 8.44853 8.44853C8.28071 8.61635 8.06689 8.73064 7.83411 8.77694C7.60133 8.82325 7.36005 8.79948 7.14078 8.70866C6.92151 8.61783 6.73409 8.46402 6.60224 8.26669C6.47038 8.06935 6.4 7.83734 6.4 7.6C6.4 7.28174 6.52643 6.97652 6.75147 6.75147C6.97652 6.52643 7.28174 6.4 7.6 6.4Z" fill="#7F7989"/>
</svg>
